<svg width="32" height="32" viewBox="0 0 32 32" xmlns="http://www.w3.org/2000/svg">
  <rect width="32" height="32" rx="6" fill="#132a42"/>
  <rect x="6" y="4" width="4" height="4" fill="#e0e8f0"/>
  <rect x="10" y="4" width="4" height="4" fill="#e0e8f0"/>
  <rect x="14" y="4" width="4" height="4" fill="#e0e8f0"/>
  <rect x="18" y="4" width="4" height="4" fill="#e0e8f0"/>
  <rect x="2" y="8" width="4" height="4" fill="#e0e8f0"/>
  <rect x="6" y="8" width="4" height="4" fill="#e0e8f0"/>
  <rect x="10" y="8" width="4" height="4" fill="#e0e8f0"/>
  <rect x="14" y="8" width="4" height="4" fill="#e0e8f0"/>
  <rect x="18" y="8" width="4" height="4" fill="#e0e8f0"/>
  <rect x="22" y="8" width="4" height="4" fill="#e0e8f0"/>
  <rect x="0" y="12" width="4" height="4" fill="#e0e8f0"/>
  <rect x="4" y="12" width="4" height="4" fill="#e0e8f0"/>
  <rect x="8" y="12" width="4" height="4" fill="#e0e8f0"/>
  <rect x="12" y="12" width="4" height="4" fill="#e0e8f0"/>
  <rect x="16" y="12" width="4" height="4" fill="#e0e8f0"/>
  <rect x="20" y="12" width="4" height="4" fill="#e0e8f0"/>
  <rect x="24" y="12" width="4" height="4" fill="#e0e8f0"/>
  <rect x="28" y="12" width="4" height="4" fill="#e0e8f0"/>
  <rect x="6" y="16" width="4" height="4" fill="#e0e8f0"/>
  <rect x="10" y="16" width="4" height="4" fill="#e0e8f0"/>
  <rect x="14" y="16" width="4" height="4" fill="#e0e8f0"/>
  <rect x="18" y="16" width="4" height="4" fill="#e0e8f0"/>
  <rect x="6" y="20" width="4" height="4" fill="#e0e8f0"/>
  <rect x="10" y="20" width="4" height="4" fill="#e0e8f0"/>
  <rect x="14" y="20" width="4" height="4" fill="#e0e8f0"/>
  <rect x="18" y="20" width="4" height="4" fill="#e0e8f0"/>
  <rect x="6" y="24" width="4" height="4" fill="#e0e8f0"/>
  <rect x="10" y="24" width="4" height="4" fill="#e0e8f0"/>
</svg>
